PathFileType	4	(X/Y/Z)	c:/Users/goper/Files/vsCode/490R/osim_files/A01/A01_PWS_05.trc
DataRate	CameraRate	NumFrames	NumMarkers	Units                	OrigDataRate	OrigDataStartFrame	OrigNumFrames
120.00	120.00	6	36	mm	120.0	448	1193
                Frame#	Time	Mobility_markerset:LPSIS			Mobility_markerset:LASIS			Mobility_markerset:LTH1			Mobility_markerset:LTH2			Mobility_markerset:LTH3			Mobility_markerset:LTH4			Mobility_markerset:LLFE			Mobility_markerset:LMFE			Mobility_markerset:LSH1			Mobility_markerset:LSH2			Mobility_markerset:LSH3			Mobility_markerset:LSH4			Mobility_markerset:LLMAL			Mobility_markerset:LMMAL			Mobility_markerset:LCAL			Mobility_markerset:LMTP5			Mobility_markerset:LTOE			Mobility_markerset:LMTP1			Mobility_markerset:RPSIS			Mobility_markerset:RASIS			Mobility_markerset:RTH1			Mobility_markerset:RTH2			Mobility_markerset:RTH3			Mobility_markerset:RTH4			Mobility_markerset:RLFE			Mobility_markerset:RMFE			Mobility_markerset:RSH1			Mobility_markerset:RSH2			Mobility_markerset:RSH3			Mobility_markerset:RSH4			Mobility_markerset:RLMAL			Mobility_markerset:RMMAL			Mobility_markerset:RCAL			Mobility_markerset:RMTP1			Mobility_markerset:RTOE			Mobility_markerset:RMTP5		
		X1	Y1	Z1	X2	Y2	Z2	X3	Y3	Z3	X4	Y4	Z4	X5	Y5	Z5	X6	Y6	Z6	X7	Y7	Z7	X8	Y8	Z8	X9	Y9	Z9	X10	Y10	Z10	X11	Y11	Z11	X12	Y12	Z12	X13	Y13	Z13	X14	Y14	Z14	X15	Y15	Z15	X16	Y16	Z16	X17	Y17	Z17	X18	Y18	Z18	X19	Y19	Z19	X20	Y20	Z20	X21	Y21	Z21	X22	Y22	Z22	X23	Y23	Z23	X24	Y24	Z24	X25	Y25	Z25	X26	Y26	Z26	X27	Y27	Z27	X28	Y28	Z28	X29	Y29	Z29	X30	Y30	Z30	X31	Y31	Z31	X32	Y32	Z32	X33	Y33	Z33	X34	Y34	Z34	X35	Y35	Z35	X36	Y36	Z36

448	3.72500	1060.42017	1035.64783	362.43448	812.69501	1017.70563	437.96478	872.86792	687.78937	495.55157	858.08722	643.90204	485.58694	815.36066	704.34790	490.47177	808.61554	660.05304	477.65085	811.22974	539.19293	441.52515	0.00000	0.00000	0.00000	854.49756	376.06900	430.54617	856.31262	328.99570	432.39029	792.42383	369.70316	424.93777	803.72595	324.71130	425.45270	850.29816	85.90893	405.20831	864.83081	86.45933	326.91086	932.17859	56.75018	370.37283	708.39355	35.68496	414.83490	685.05817	58.99411	347.76706	703.21667	47.61876	314.52109	1068.69653	1023.02728	258.45673	841.01349	972.58472	180.28116	955.49884	641.64288	107.66091	941.51581	599.52899	110.51356	893.25519	652.77112	102.61272	889.41388	609.88641	105.73245	895.71912	462.82959	139.06595	0.00000	0.00000	0.00000	1106.74146	419.24451	154.90756	1143.83154	394.03577	156.83156	1079.00842	367.51978	141.74370	1118.93713	348.42755	145.07416	1274.72791	282.55518	189.34532	1243.46106	261.90482	270.57565	1310.90686	319.30902	244.59743	1268.23376	114.97007	270.00745	1245.34167	91.17162	222.75145	1295.14148	135.66776	161.02576
449	3.73333	1050.84558	1036.98193	363.88135	802.36792	1018.22784	438.36179	866.08099	688.28467	496.17496	851.56732	644.14355	486.08929	808.31842	704.39240	490.43802	802.90631	659.73724	477.59497	806.15308	539.33496	442.22241	0.00000	0.00000	0.00000	850.82800	376.41464	430.83325	853.42792	329.44821	432.70978	789.01740	369.46463	425.37787	800.75580	324.65891	425.56403	850.03717	86.20637	405.23746	864.42725	86.84295	326.83508	931.97241	57.36388	370.33829	708.19305	35.57961	414.82303	684.77600	58.76348	347.78033	703.03162	47.51641	314.54303	1059.23047	1024.62341	260.07776	832.09369	973.67017	180.37796	939.72150	642.59033	108.09085	924.82770	600.85461	110.82240	877.71515	655.13794	102.58758	873.65533	612.47906	105.31559	874.77771	465.49631	138.93597	838.05261	471.52133	260.19571	1085.31445	421.78656	156.37506	1122.19104	396.43134	158.53172	1057.29907	370.07593	143.17218	1096.95825	350.86655	146.74611	1252.37695	283.47806	191.80754	1220.63477	263.79367	272.57834	1290.27319	319.43695	246.96193	1241.87659	117.02436	271.97134	1217.62903	93.20164	224.81644	1269.16736	136.39833	163.10219
450	3.74167	1041.28760	1038.38867	365.26486	793.04797	1019.04871	438.89532	859.61200	688.82318	496.81543	845.54327	644.51398	486.67606	802.31537	703.73486	490.53204	796.60614	659.77734	478.48721	800.99872	539.17816	442.79562	0.00000	0.00000	0.00000	847.46216	376.76874	431.22867	850.39349	329.80246	433.06256	785.54712	369.15894	425.94650	798.06549	324.72253	426.29083	849.71167	86.49326	405.30984	863.91290	87.01235	326.99496	931.91669	57.82227	370.43347	707.99847	35.45705	414.85770	684.48798	58.50678	347.82593	702.82947	47.37676	314.54419	1049.64014	1026.29321	261.68002	822.44543	974.90308	180.07341	923.97375	643.69720	108.56782	908.16400	602.39545	111.18400	861.97955	657.42816	103.15475	857.22382	615.19580	105.31935	853.83069	468.42581	138.98369	817.82123	475.61740	260.61612	1063.64270	423.56555	157.67879	1100.54297	398.09464	159.79005	1035.40259	372.05292	144.43663	1075.23279	352.75317	147.87241	1230.04285	283.61795	193.98618	1197.10620	264.56049	274.46985	1268.80017	318.25345	249.23256	1214.46814	117.44982	273.94965	1189.76440	94.85135	226.26695	1242.83459	136.14619	165.32707
451	3.75000	1031.71338	1039.82922	366.62762	782.96796	1019.54779	438.97086	853.82990	689.05267	497.40131	839.82288	644.94263	487.24805	795.57233	704.03302	491.88101	790.68457	659.71136	479.21536	796.05042	538.92090	443.52570	0.00000	0.00000	0.00000	844.25604	376.81534	431.73819	847.52911	330.10977	433.46442	782.31616	368.99689	426.39929	795.08838	324.32184	426.47412	849.59692	86.92757	405.47717	863.45972	87.31927	327.03000	931.78412	58.46037	370.37686	707.77094	35.30266	414.92590	684.18121	58.21438	347.89700	702.64551	47.20005	314.58020	1040.74097	1028.31396	263.13022	813.53192	976.30017	179.93105	907.89642	644.63824	109.15193	891.29761	604.06873	111.84730	847.12427	660.54932	102.31666	840.94952	618.14569	105.20395	832.71765	471.43735	139.32202	796.58527	480.02789	260.94586	1041.97217	424.79941	158.61781	1078.50537	398.77289	160.86426	1012.74408	373.04956	145.93318	1052.70752	353.68042	149.17101	1207.46899	282.51581	196.06337	1173.35876	264.54901	276.30899	1247.40027	316.18866	251.58063	1185.56311	116.95023	275.74039	1161.11426	95.46129	227.83565	1215.98657	134.75972	167.49969
452	3.75833	1022.19745	1041.30615	367.88373	774.07288	1020.34821	439.12177	847.76147	689.67279	497.79007	834.30255	645.21240	487.74326	789.64758	704.10779	493.18896	784.81085	659.54883	479.91699	791.21228	538.68878	444.16473	0.00000	0.00000	0.00000	840.78607	377.42017	432.17395	844.65625	330.45813	433.82654	779.69556	368.18124	426.32364	792.35901	324.24460	427.04672	849.20697	87.21290	405.63062	863.08362	87.69262	327.00351	931.56812	59.02669	370.37561	707.60437	35.17934	414.95804	683.88739	57.95669	347.92932	702.45355	47.08591	314.60254	1031.18408	1030.05139	264.58691	804.36969	978.02124	179.75526	892.46704	646.42987	109.40810	874.70612	606.01703	111.99923	831.91119	663.48523	102.24686	824.70044	621.33740	105.13552	811.46375	474.68750	140.01740	776.32062	484.44897	261.31613	1020.55334	425.08188	159.22554	1056.63757	398.66315	161.62836	991.14026	374.20755	146.35672	1030.42285	353.91418	150.18954	1184.56433	280.48477	198.02150	1149.18530	263.66156	278.04431	1225.17712	312.68481	253.78189	1156.47229	115.96146	277.70908	1131.45520	94.74890	229.71378	1188.06519	132.07652	170.07454
453	3.76667	1012.68878	1042.76831	369.06412	763.99359	1021.33179	438.82266	841.60333	689.97076	498.14798	828.62170	645.63538	488.12769	783.53699	704.08105	493.91516	779.45477	659.74866	480.86276	786.59222	538.56818	444.72235	0.00000	0.00000	0.00000	837.82062	377.94086	432.52380	841.93726	330.79962	434.11447	776.62250	367.98874	426.63840	789.75378	324.00491	427.30334	848.77686	87.38605	405.63034	862.80060	88.23680	326.72238	930.98688	59.48286	370.39865	707.46338	35.08951	414.99139	683.73584	57.75990	347.94504	702.27728	46.97454	314.62451	1021.72467	1031.77222	265.96817	795.35327	979.90759	179.73447	876.95551	648.17352	109.71308	858.52991	608.34937	112.08602	816.36298	666.40094	102.81181	808.58148	624.53552	105.04832	791.15228	478.14755	140.22771	757.65887	488.43539	261.25485	999.27350	424.99185	159.62820	1034.82935	397.75482	162.24106	968.26331	374.00909	147.77031	1007.57037	353.42734	151.43800	1161.28491	277.52481	199.82904	1125.01807	262.16605	279.76236	1202.84106	308.17862	255.67197	1126.57483	114.72121	279.53333	1100.20923	95.01045	231.30354	1159.81519	129.44502	171.75752
